<svg version="1.1" xmlns="http://www.w3.org/2000/svg" width="103" height="29">
<path d="M0 0 C165 0 330 0 500 0 C500 165 500 330 500 500 C335 500 170 500 0 500 C0 335 0 170 0 0 Z " fill="#FEFEFE" transform="translate(0,0)"/>
<path d="M0 0 C1 1 1 1 1.5 4.8125 C1.30103828 15.29115075 -6.67648139 23.16187561 -13.73535156 30.0793457 C-16.36180196 32.58185029 -19.03985959 34.90176205 -22 37 C-21.67702486 38.66870487 -21.33986667 40.33465333 -21 42 C-20.79890625 43.08667969 -20.79890625 43.08667969 -20.59375 44.1953125 C-19.4272364 50.10730906 -19.4272364 50.10730906 -16 55 C-11.84030633 54.80652588 -10.33708278 54.34510856 -7.375 51.3125 C-5.77158557 49.17975324 -4.33762692 46.98695882 -2.875 44.75 C-1 42 -1 42 2 40 C4.6875 39.875 4.6875 39.875 7 40 C7.1546875 38.8553125 7.1546875 38.8553125 7.3125 37.6875 C8.07261947 34.71612391 8.61645674 33.84911652 11 32 C13.19140625 31.63671875 13.19140625 31.63671875 15.5625 31.6875 C16.34753906 31.69136719 17.13257813 31.69523437 17.94140625 31.69921875 C20 32 20 32 22 34 C22.87113779 41.84024013 20.60856596 47.10506146 17 54 C21.17573881 53.48868504 23.1623852 52.99967877 25.91796875 49.7109375 C27.11916875 47.93346884 28.28868304 46.1340796 29.421875 44.3125 C31 42 31 42 34 40 C36.6875 39.875 36.6875 39.875 39 40 C39.1546875 38.8553125 39.1546875 38.8553125 39.3125 37.6875 C40.07261947 34.71612391 40.61645674 33.84911652 43 32 C45.19140625 31.63671875 45.19140625 31.63671875 47.5625 31.6875 C48.34753906 31.69136719 49.13257813 31.69523437 49.94140625 31.69921875 C52 32 52 32 54 34 C54.87113779 41.84024013 52.60856596 47.10506146 49 54 C54.53067521 52.83004947 56.88935307 51.71614213 60 47 C60.42667969 46.30132812 60.85335937 45.60265625 61.29296875 44.8828125 C65.57226772 38.06805757 70.54728491 33.24938378 78 30 C83.35714286 29.67857143 83.35714286 29.67857143 86 31 C86 31.99 86 32.98 86 34 C85.11248047 34.14695312 85.11248047 34.14695312 84.20703125 34.296875 C79.15797064 35.2523253 75.59567846 36.10468167 72 40 C68.09262553 46.22737805 65.86266984 50.58417159 66 58 C69.08508207 58 71.2606503 57.58574051 73.7109375 55.64453125 C82.92860066 45.86379817 87.39940778 31.97239075 92.27270508 19.703125 C97.94825285 5.66148495 97.94825285 5.66148495 102 1 C104.68774414 0.22949219 104.68774414 0.22949219 107 0 C108.29021209 4.32790191 107.71655707 6.41611512 105.68359375 10.39453125 C105.16901611 11.42481445 104.65443848 12.45509766 104.12426758 13.51660156 C103.56763428 14.60424805 103.01100098 15.69189453 102.4375 16.8125 C92.33254997 36.93191739 92.33254997 36.93191739 89 59 C93.45334108 57.79231428 95.86117592 56.60440436 98.75 53 C99.32234375 52.29875 99.8946875 51.5975 100.484375 50.875 C100.98453125 50.25625 101.4846875 49.6375 102 49 C102.66 48.34 103.32 47.68 104 47 C104.33 47.66 104.66 48.32 105 49 C102.10791084 55.41289336 97.37915266 60.81042367 91 64 C84.79620853 64.45118483 84.79620853 64.45118483 82.125 62.9375 C80.46514955 60.07886867 80.30684971 57.25260697 80 54 C79.29875 54.9075 78.5975 55.815 77.875 56.75 C74.82262386 60.3581309 71.77969487 63.42470532 66.98046875 64.41796875 C64.875 64.5625 64.875 64.5625 61 64 C58.2672576 61.40739824 57.18688331 59.56064994 56 56 C55.01 56.495 55.01 56.495 54 57 C52.58454858 57.1019125 51.16750929 57.18249956 49.75 57.25 C44.65339007 57.74902601 42.65395632 59.51599513 39 63 C36.10457671 65.05481653 35.04472985 65.00231361 31.375 64.8125 C28 64 28 64 26 61 C25.875 57.8125 25.875 57.8125 26 55 C25.14535156 55.48533203 25.14535156 55.48533203 24.2734375 55.98046875 C21.86809234 57.05915447 20.23699083 57.22543364 17.625 57.3125 C12.57975805 57.75986136 10.61525353 59.5528978 7 63 C4.23452065 64.96259825 2.98250974 65.00031233 -0.5 65.0625 C-4.27983234 63.9150509 -4.60924012 63.65159389 -6.4375 60.4375 C-6.953125 59.303125 -7.46875 58.16875 -8 57 C-8.99 57.66 -9.98 58.32 -11 59 C-17.32258065 59.4516129 -17.32258065 59.4516129 -21 57 C-20.94199219 57.57105469 -20.88398438 58.14210938 -20.82421875 58.73046875 C-20.33507973 67.52099569 -22.97447621 75.57151156 -27.9375 82.8359375 C-30.74037324 85.77683102 -33.04216232 85.77166321 -37 86 C-40.53574479 81.43299631 -40.64180871 77.52942892 -40 72 C-39.15371706 67.95340572 -38.13022757 63.97597914 -37 60 C-38.2065625 60.99 -38.2065625 60.99 -39.4375 62 C-42.88280824 64.28323278 -45.85668389 64.63108562 -49.94140625 64.47265625 C-52 64 -52 64 -54.5625 61.5 C-55.036875 60.675 -55.51125 59.85 -56 59 C-56.48210937 59.42152344 -56.96421875 59.84304688 -57.4609375 60.27734375 C-58.40839844 61.09912109 -58.40839844 61.09912109 -59.375 61.9375 C-60.00148438 62.48277344 -60.62796875 63.02804687 -61.2734375 63.58984375 C-63.60027829 65.49027254 -64.85315527 65.98084634 -67.875 66.375 C-71 66 -71 66 -73.375 63.625 C-75 61 -75 61 -75 59 C-75.55429688 59.42152344 -76.10859375 59.84304688 -76.6796875 60.27734375 C-77.40414062 60.82519531 -78.12859375 61.37304688 -78.875 61.9375 C-79.59429687 62.48277344 -80.31359375 63.02804687 -81.0546875 63.58984375 C-84.88530172 66.36665446 -88.37991759 66.485842 -93 66 C-95.375 64.9375 -95.375 64.9375 -97 63 C-98.25 59.3125 -98.25 59.3125 -99 56 C-99.598125 56.474375 -100.19625 56.94875 -100.8125 57.4375 C-103 59 -103 59 -106 60 C-106.66 60.825 -107.32 61.65 -108 62.5 C-110 65 -110 65 -113 66 C-117.87277277 66.50379515 -121.73454569 66.76454531 -126 64.1875 C-128 62 -128 62 -130 59 C-130.78375 59.639375 -131.5675 60.27875 -132.375 60.9375 C-136.16080206 63.91205876 -138.17885355 64.39356298 -143 64 C-145.06826908 62.45241405 -145.90169814 61.59332195 -146.328125 59.01953125 C-146.30234375 58.29121094 -146.2765625 57.56289063 -146.25 56.8125 C-146.22421875 56.02617187 -146.1984375 55.23984375 -146.171875 54.4296875 C-145.92390446 50.92428583 -145.50585584 47.47775888 -145 44 C-148.93421486 43.91803719 -151.00554575 44.14297513 -154.03515625 46.75390625 C-158.57788871 51.78679867 -162.4146508 57.25529275 -166 63 C-167.65 62.67 -169.3 62.34 -171 62 C-172.20624074 58.38127777 -171.70235768 57.74729802 -170.1875 54.375 C-168.4100788 50.20935993 -167.2716879 46.26678802 -166.4921875 41.8125 C-166 40 -166 40 -164 38 C-161.375 38.375 -161.375 38.375 -159 39 C-158.67 40.98 -158.34 42.96 -158 45 C-157.44570312 44.50628906 -156.89140625 44.01257813 -156.3203125 43.50390625 C-155.59585938 42.86324219 -154.87140625 42.22257812 -154.125 41.5625 C-153.04605469 40.60537109 -153.04605469 40.60537109 -151.9453125 39.62890625 C-148.65554501 36.87422142 -146.23173567 36.83109292 -141.97265625 36.671875 C-140 37 -140 37 -138.265625 38.2109375 C-135.82467773 41.66141235 -136.60432869 45.9524771 -137 50 C-138 52.875 -138 52.875 -139 55 C-139 56.32 -139 57.64 -139 59 C-135.57221614 58.71435135 -134.27757653 58.29390456 -131.875 55.75 C-129.97152586 53.05563698 -129.97152586 53.05563698 -128.5 50.25 C-126.7079082 47.5618623 -125.99945434 47.67729614 -123 47 C-121.97348627 45.28480253 -121.97348627 45.28480253 -121 43 C-120.17931002 41.88640383 -119.34450753 40.78314388 -118.5 39.6875 C-115.96300121 36.22999722 -114.93518497 33.16582398 -114 29 C-112.68 28.67 -111.36 28.34 -110 28 C-109.9175 29.27875 -109.835 30.5575 -109.75 31.875 C-109.35749034 35.61262927 -108.45902435 38.56984971 -106.9375 42 C-104.80364286 46.91480454 -104.65680882 50.68053665 -105 56 C-100.89746045 53.8932905 -98.92663195 52.20356061 -97 48 C-95.88596194 44.3601245 -94.91246204 40.6951477 -94 37 C-94.66 37 -95.32 37 -96 37 C-96 36.01 -96 35.02 -96 34 C-94.68 34 -93.36 34 -92 34 C-91.73960937 33.14664063 -91.47921875 32.29328125 -91.2109375 31.4140625 C-89.95097734 27.86178773 -88.40560749 24.69517204 -86.625 21.375 C-86.03976563 20.26898438 -85.45453125 19.16296875 -84.8515625 18.0234375 C-83.11633363 15.18996251 -81.57032128 13.09548281 -79 11 C-76.25 11.25 -76.25 11.25 -74 12 C-74.5537478 17.10454793 -77.02592796 20.96575557 -79.5625 25.3125 C-80.19961914 26.42334961 -80.19961914 26.42334961 -80.84960938 27.55664062 C-81.89351653 29.37468118 -82.94592192 31.18783748 -84 33 C-77.07 33.495 -77.07 33.495 -70 34 C-70 34.99 -70 35.98 -70 37 C-75.61 37.66 -81.22 38.32 -87 39 C-89.53054549 46.27531829 -90.39448454 52.31485677 -90 60 C-85.2869031 60.49611546 -82.20022548 60.67408544 -78.375 57.6875 C-75.52887318 54.97598729 -73.89347128 52.11821661 -72.125 48.625 C-68.31404696 41.14574992 -62.06962994 34.8068278 -54 32 C-50.57340972 31.5104871 -48.21870892 31.22859743 -45.22265625 33.125 C-43.75136866 34.34357231 -42.36742562 35.66592623 -41 37 C-41.75 41.75 -41.75 41.75 -44 44 C-43.67 44.99 -43.34 45.98 -43 47 C-44.00462127 48.74998544 -45.01362091 50.49820601 -46.07421875 52.21484375 C-47.28482814 54.54922557 -47.31319726 56.41612258 -47 59 C-44.0750545 59.26920906 -42.53608973 59.39819605 -40.13208008 57.61254883 C-35.63346887 52.32712324 -33.05941307 47.17656571 -30.6875 40.6875 C-27.75582496 33.13706595 -24.6214372 25.80956411 -20.875 18.625 C-20.49174561 17.87178467 -20.10849121 17.11856934 -19.71362305 16.3425293 C-15.40772716 8.24867865 -10.00914716 -0.65277047 0 0 Z " fill="#0E0E0E" transform="translate(280,200)"/>
<path d="M0 0 C0.7425 0.2475 1.485 0.495 2.25 0.75 C1.6962522 5.85454793 -0.77592796 9.71575557 -3.3125 14.0625 C-3.94961914 15.17334961 -3.94961914 15.17334961 -4.59960938 16.30664062 C-5.64351653 18.12468118 -6.69592192 19.93783748 -7.75 21.75 C-0.82 22.245 -0.82 22.245 6.25 22.75 C6.25 23.74 6.25 24.73 6.25 25.75 C0.64 26.41 -4.97 27.07 -10.75 27.75 C-13.28054549 35.02531829 -14.14448454 41.06485677 -13.75 48.75 C-7.94607727 49.2832293 -7.94607727 49.2832293 -2.9375 46.75 C-2.215625 46.09 -1.49375 45.43 -0.75 44.75 C0.24 44.75 1.23 44.75 2.25 44.75 C2.25 46.4 2.25 48.05 2.25 49.75 C1.92 49.09 1.59 48.43 1.25 47.75 C0.69570312 48.17152344 0.14140625 48.59304688 -0.4296875 49.02734375 C-1.15414062 49.57519531 -1.87859375 50.12304688 -2.625 50.6875 C-3.34429687 51.23277344 -4.06359375 51.77804687 -4.8046875 52.33984375 C-8.63530172 55.11665446 -12.12991759 55.235842 -16.75 54.75 C-19.125 53.6875 -19.125 53.6875 -20.75 51.75 C-22 48.0625 -22 48.0625 -22.75 44.75 C-23.348125 45.224375 -23.94625 45.69875 -24.5625 46.1875 C-26.75 47.75 -26.75 47.75 -29.75 48.75 C-30.41 49.575 -31.07 50.4 -31.75 51.25 C-33.75 53.75 -33.75 53.75 -36.75 54.75 C-41.62277277 55.25379515 -45.48454569 55.51454531 -49.75 52.9375 C-51.75 50.75 -51.75 50.75 -53.75 47.75 C-54.53375 48.389375 -55.3175 49.02875 -56.125 49.6875 C-59.91080206 52.66205876 -61.92885355 53.14356298 -66.75 52.75 C-68.81826908 51.20241405 -69.65169814 50.34332195 -70.078125 47.76953125 C-70.05234375 47.04121094 -70.0265625 46.31289063 -70 45.5625 C-69.97421875 44.77617187 -69.9484375 43.98984375 -69.921875 43.1796875 C-69.67390446 39.67428583 -69.25585584 36.22775888 -68.75 32.75 C-72.68421486 32.66803719 -74.75554575 32.89297513 -77.78515625 35.50390625 C-82.32788871 40.53679867 -86.1646508 46.00529275 -89.75 51.75 C-91.4 51.42 -93.05 51.09 -94.75 50.75 C-95.95624074 47.13127777 -95.45235768 46.49729802 -93.9375 43.125 C-92.1600788 38.95935993 -91.0216879 35.01678802 -90.2421875 30.5625 C-89.75 28.75 -89.75 28.75 -87.75 26.75 C-85.125 27.125 -85.125 27.125 -82.75 27.75 C-82.42 29.73 -82.09 31.71 -81.75 33.75 C-81.19570312 33.25628906 -80.64140625 32.76257813 -80.0703125 32.25390625 C-79.34585938 31.61324219 -78.62140625 30.97257812 -77.875 30.3125 C-77.15570313 29.67441406 -76.43640625 29.03632813 -75.6953125 28.37890625 C-72.40554501 25.62422142 -69.98173567 25.58109292 -65.72265625 25.421875 C-63.75 25.75 -63.75 25.75 -62.015625 26.9609375 C-59.57467773 30.41141235 -60.35432869 34.7024771 -60.75 38.75 C-61.75 41.625 -61.75 41.625 -62.75 43.75 C-62.75 45.07 -62.75 46.39 -62.75 47.75 C-59.32221614 47.46435135 -58.02757653 47.04390456 -55.625 44.5 C-53.72152586 41.80563698 -53.72152586 41.80563698 -52.25 39 C-50.4579082 36.3118623 -49.74945434 36.42729614 -46.75 35.75 C-45.72348627 34.03480253 -45.72348627 34.03480253 -44.75 31.75 C-43.92931002 30.63640383 -43.09450753 29.53314388 -42.25 28.4375 C-39.71300121 24.97999722 -38.68518497 21.91582398 -37.75 17.75 C-36.43 17.42 -35.11 17.09 -33.75 16.75 C-33.6675 18.02875 -33.585 19.3075 -33.5 20.625 C-33.10749034 24.36262927 -32.20902435 27.31984971 -30.6875 30.75 C-28.55364286 35.66480454 -28.40680882 39.43053665 -28.75 44.75 C-24.64746045 42.6432905 -22.67663195 40.95356061 -20.75 36.75 C-19.63596194 33.1101245 -18.66246204 29.4451477 -17.75 25.75 C-18.41 25.75 -19.07 25.75 -19.75 25.75 C-19.75 24.76 -19.75 23.77 -19.75 22.75 C-18.43 22.75 -17.11 22.75 -15.75 22.75 C-15.48960937 21.89664063 -15.22921875 21.04328125 -14.9609375 20.1640625 C-13.70097734 16.61178773 -12.15560749 13.44517204 -10.375 10.125 C-9.78976563 9.01898438 -9.20453125 7.91296875 -8.6015625 6.7734375 C-4.21862483 -0.38351135 -4.21862483 -0.38351135 0 0 Z " fill="#0F0F0F" transform="translate(203.75,211.25)"/>
<path d="M0 0 C-0.47563058 6.27832365 -3.42078752 11.34429194 -6.1875 16.875 C-15.84223391 36.5148381 -15.84223391 36.5148381 -19 58 C-14.54665892 56.79231428 -12.13882408 55.60440436 -9.25 52 C-8.67765625 51.29875 -8.1053125 50.5975 -7.515625 49.875 C-7.01546875 49.25625 -6.5153125 48.6375 -6 48 C-5.34 47.34 -4.68 46.68 -4 46 C-3.67 46.66 -3.34 47.32 -3 48 C-5.89208916 54.41289336 -10.62084734 59.81042367 -17 63 C-23.20379147 63.45118483 -23.20379147 63.45118483 -25.875 61.9375 C-27.53485045 59.07886867 -27.69315029 56.25260697 -28 53 C-28.70125 53.9075 -29.4025 54.815 -30.125 55.75 C-33.17737614 59.3581309 -36.22030513 62.42470532 -41.01953125 63.41796875 C-43.125 63.5625 -43.125 63.5625 -47 63 C-50.10239558 60.14253039 -51.84337224 57.04210965 -53 53 C-52.09375 50.82421875 -52.09375 50.82421875 -50.5 48.6875 C-49.92894531 47.91148437 -49.35789062 47.13546875 -48.76953125 46.3359375 C-48.18558594 45.56507813 -47.60164063 44.79421875 -47 44 C-46.29423828 42.93652344 -46.29423828 42.93652344 -45.57421875 41.8515625 C-41.5327961 35.90896356 -36.39749176 32.19874588 -30 29 C-24.46153846 28.76923077 -24.46153846 28.76923077 -22 30 C-22 30.99 -22 31.98 -22 33 C-22.88751953 33.14695312 -22.88751953 33.14695312 -23.79296875 33.296875 C-28.84202936 34.2523253 -32.40432154 35.10468167 -36 39 C-39.90737447 45.22737805 -42.13733016 49.58417159 -42 57 C-38.91491793 57 -36.7393497 56.58574051 -34.2890625 54.64453125 C-25.07139934 44.86379817 -20.60059222 30.97239075 -15.72729492 18.703125 C-7.28431896 -2.18529569 -7.28431896 -2.18529569 0 0 Z " fill="#0D0D0D" transform="translate(388,201)"/>
<path d="M0 0 C0.96800537 -0.00193359 1.93601074 -0.00386719 2.93334961 -0.00585938 C4.4687439 0.0009082 4.4687439 0.0009082 6.03515625 0.0078125 C7.07099854 0.00974609 8.10684082 0.01167969 9.17407227 0.01367188 C16.1957333 0.05334539 23.12058968 0.29256362 30.09765625 1.1328125 C29.09765625 4.1328125 29.09765625 4.1328125 27.48828125 5.3125 C24.20780574 6.43815336 21.30598662 6.32185566 17.84765625 6.2578125 C16.584375 6.23976562 15.32109375 6.22171875 14.01953125 6.203125 C13.0553125 6.17992187 12.09109375 6.15671875 11.09765625 6.1328125 C11.03723145 6.93936279 11.03723145 6.93936279 10.97558594 7.76220703 C10.32976184 15.21673113 9.09137757 22.54731761 7.73339844 29.89990234 C7.34999631 31.99502509 6.98549491 34.09290737 6.62109375 36.19140625 C3.00962436 56.22084439 3.00962436 56.22084439 -1.90234375 61.1328125 C4.03765625 61.7928125 9.97765625 62.4528125 16.09765625 63.1328125 C11.21482476 68.01564399 9.40055406 68.29174303 2.90234375 68.44921875 C1.84117844 68.4803904 1.84117844 68.4803904 0.75857544 68.51219177 C-1.503298 68.57762328 -3.76528837 68.63654224 -6.02734375 68.6953125 C-7.55990797 68.73850383 -9.09246032 68.78211832 -10.625 68.82617188 C-14.38399448 68.93329805 -18.14310667 69.0345834 -21.90234375 69.1328125 C-21.53125 66.71484375 -21.53125 66.71484375 -20.90234375 64.1328125 C-16.81577787 61.53227058 -12.57866253 61.97429322 -7.90234375 62.1328125 C-5.46570244 54.34733797 -3.4227617 46.48821247 -1.46484375 38.5703125 C-1.1598999 37.3440918 -0.85495605 36.11787109 -0.54077148 34.85449219 C1.74570627 25.63088828 3.9676381 16.39376099 6.09765625 7.1328125 C-0.3192305 7.02931433 -6.52928777 7.38773706 -12.90234375 8.1328125 C-12.13671875 4.34375 -12.13671875 4.34375 -10.02734375 2.4453125 C-6.62157158 0.34174733 -3.91396421 0.00506568 0 0 Z " fill="#0C0C0C" transform="translate(88.90234375,199.8671875)"/>
<path d="M0 0 C0.78503906 0.00386719 1.57007813 0.00773438 2.37890625 0.01171875 C4.4375 0.3125 4.4375 0.3125 6.4375 2.3125 C7.30863779 10.15274013 5.04606596 15.41756146 1.4375 22.3125 C4.9025 21.8175 4.9025 21.8175 8.4375 21.3125 C7.703125 23.28515625 7.703125 23.28515625 6.4375 25.3125 C4.484375 25.74609375 4.484375 25.74609375 2.1875 25.75 C-2.99467243 26.08272375 -4.85656536 27.77893442 -8.5625 31.3125 C-11.45792329 33.36731653 -12.51777015 33.31481361 -16.1875 33.125 C-19.5625 32.3125 -19.5625 32.3125 -21.5625 29.3125 C-21.6875 26.125 -21.6875 26.125 -21.5625 23.3125 C-22.5525 22.9825 -23.5425 22.6525 -24.5625 22.3125 C-23.48868483 20.53587883 -22.403042 18.76640311 -21.3125 17 C-20.70921875 16.01386719 -20.1059375 15.02773437 -19.484375 14.01171875 C-17.66323925 11.45398541 -16.24091936 9.91091155 -13.5625 8.3125 C-10.8125 8.125 -10.8125 8.125 -8.5625 8.3125 C-8.459375 7.549375 -8.35625 6.78625 -8.25 6 C-7.02556004 1.21355289 -4.83537404 -0.10355826 0 0 Z " fill="#0F0F0F" transform="translate(327.5625,231.6875)"/>
<path d="M0 0 C0.7425 0.2475 1.485 0.495 2.25 0.75 C1.6962522 5.85454793 -0.77592796 9.71575557 -3.3125 14.0625 C-3.73724609 14.80306641 -4.16199219 15.54363281 -4.59960938 16.30664062 C-5.64351653 18.12468118 -6.69592192 19.93783748 -7.75 21.75 C-0.82 22.245 -0.82 22.245 6.25 22.75 C6.25 23.74 6.25 24.73 6.25 25.75 C0.64 26.41 -4.97 27.07 -10.75 27.75 C-13.28054549 35.02531829 -14.14448454 41.06485677 -13.75 48.75 C-7.94607727 49.2832293 -7.94607727 49.2832293 -2.9375 46.75 C-2.215625 46.09 -1.49375 45.43 -0.75 44.75 C0.24 44.75 1.23 44.75 2.25 44.75 C2.25 46.4 2.25 48.05 2.25 49.75 C1.92 49.09 1.59 48.43 1.25 47.75 C0.69570312 48.17152344 0.14140625 48.59304688 -0.4296875 49.02734375 C-1.15414062 49.57519531 -1.87859375 50.12304688 -2.625 50.6875 C-3.34429687 51.23277344 -4.06359375 51.77804687 -4.8046875 52.33984375 C-8.63530172 55.11665446 -12.12991759 55.235842 -16.75 54.75 C-19.125 53.6875 -19.125 53.6875 -20.75 51.75 C-22 48.0625 -22 48.0625 -22.75 44.75 C-23.41 45.41 -24.07 46.07 -24.75 46.75 C-25.74 46.42 -26.73 46.09 -27.75 45.75 C-26.8425 45.04875 -25.935 44.3475 -25 43.625 C-20.19012332 38.92910144 -19.22392498 32.07920728 -17.75 25.75 C-18.41 25.75 -19.07 25.75 -19.75 25.75 C-19.75 24.76 -19.75 23.77 -19.75 22.75 C-18.43 22.75 -17.11 22.75 -15.75 22.75 C-15.48960937 21.89664063 -15.22921875 21.04328125 -14.9609375 20.1640625 C-13.70097734 16.61178773 -12.15560749 13.44517204 -10.375 10.125 C-9.78976563 9.01898438 -9.20453125 7.91296875 -8.6015625 6.7734375 C-4.21862483 -0.38351135 -4.21862483 -0.38351135 0 0 Z " fill="#101010" transform="translate(203.75,211.25)"/>
<path d="M0 0 C1.734375 1.2109375 1.734375 1.2109375 3 3 C3.83605176 8.30398428 3.28395444 13.14659681 1 18 C1 19.32 1 20.64 1 22 C2.32 22.66 3.64 23.32 5 24 C4.34 24.99 3.68 25.98 3 27 C-2.13016052 27.65491411 -2.13016052 27.65491411 -4.67578125 25.73828125 C-6.32222651 23.5770183 -6.34518964 22.50160721 -6.25 19.8125 C-6.22421875 19.02617187 -6.1984375 18.23984375 -6.171875 17.4296875 C-5.92390446 13.92428583 -5.50585584 10.47775888 -5 7 C-8.93421486 6.91803719 -11.00554575 7.14297513 -14.03515625 9.75390625 C-18.57788871 14.78679867 -22.4146508 20.25529275 -26 26 C-27.65 25.67 -29.3 25.34 -31 25 C-32.20624074 21.38127777 -31.70235768 20.74729802 -30.1875 17.375 C-28.4100788 13.20935993 -27.2716879 9.26678802 -26.4921875 4.8125 C-26 3 -26 3 -24 1 C-21.375 1.375 -21.375 1.375 -19 2 C-18.67 3.98 -18.34 5.96 -18 8 C-17.44570312 7.50628906 -16.89140625 7.01257813 -16.3203125 6.50390625 C-15.59585938 5.86324219 -14.87140625 5.22257813 -14.125 4.5625 C-13.40570313 3.92441406 -12.68640625 3.28632813 -11.9453125 2.62890625 C-8.3480129 -0.38329041 -4.57316523 -0.76068491 0 0 Z " fill="#0C0C0C" transform="translate(140,237)"/>
<path d="M0 0 C1.16930023 3.5079007 0.55740624 4.56626439 -0.99438477 7.78637695 C-1.30561279 8.39312256 -1.61684082 8.99986816 -1.9375 9.625 C-2.25452881 10.24656982 -2.57155762 10.86813965 -2.89819336 11.50854492 C-6.32624676 17.97222873 -10.20208695 24.75704664 -17.4375 27.125 C-20 27 -20 27 -21 26 C-21.71062883 19.03583746 -19.55894481 14.4894702 -15.5390625 9.0078125 C-12.95140886 5.84220577 -10.8672234 3.53508104 -7 2 C-4.66796188 1.9222654 -2.33160941 1.91032272 0 2 C0 1.34 0 0.68 0 0 Z " fill="#F6F6F6" transform="translate(366,232)"/>
<path d="M0 0 C1 1 1 1 1.3828125 3.62109375 C0.85867623 8.24739857 -1.19959305 10.56489557 -4.125 14.0625 C-4.8365625 14.9606543 -4.8365625 14.9606543 -5.5625 15.87695312 C-8.70596632 19.75531089 -11.88968569 23.1428303 -16 26 C-18.375 25.8125 -18.375 25.8125 -20 25 C-19.70037683 15.71168158 -16.28952552 8.78732966 -9.5 2.375 C-6.34795572 -0.11161271 -4.05240215 -0.67540036 0 0 Z " fill="#F4F4F4" transform="translate(232,236)"/>
<path d="M0 0 C1.95666272 1.62019955 2.90809562 2.5251607 3.3984375 5.05859375 C3.31161915 13.87065608 1.87850694 23.47896847 -3 31 C-3.99 31.33 -4.98 31.66 -6 32 C-7.03920873 21.72338031 -4.65271 9.30542 0 0 Z " fill="#F2F2F2" transform="translate(253,249)"/>
<path d="M0 0 C0.66 0 1.32 0 2 0 C2.20496094 0.68707031 2.40992188 1.37414062 2.62109375 2.08203125 C2.89050781 2.98308594 3.15992188 3.88414062 3.4375 4.8125 C3.83775391 6.15248047 3.83775391 6.15248047 4.24609375 7.51953125 C4.80387873 9.35473055 5.39344575 11.18033726 6 13 C3.8125 15.5 3.8125 15.5 1 18 C-1.67578125 18.15625 -1.67578125 18.15625 -4 18 C-4.53449652 10.75460274 -3.71607548 6.27087737 0 0 Z " fill="#F0F0F0" transform="translate(317,242)"/>
<path d="M0 0 C0.66 0 1.32 0 2 0 C2.20496094 0.68707031 2.40992188 1.37414062 2.62109375 2.08203125 C2.89050781 2.98308594 3.15992188 3.88414062 3.4375 4.8125 C3.83775391 6.15248047 3.83775391 6.15248047 4.24609375 7.51953125 C4.80387873 9.35473055 5.39344575 11.18033726 6 13 C3.8125 15.5 3.8125 15.5 1 18 C-1.67578125 18.15625 -1.67578125 18.15625 -4 18 C-4.53449652 10.75460274 -3.71607548 6.27087737 0 0 Z " fill="#F0F0F0" transform="translate(285,242)"/>
<path d="M0 0 C0.66 0 1.32 0 2 0 C3.5056904 5.80766296 4.21824777 10.9981863 4 17 C-0.40114397 16.49701212 -2.71195019 14.91227269 -6 12 C-5.42316338 8.10635283 -3.45178223 5.98810959 -1 3 C-0.67 2.01 -0.34 1.02 0 0 Z " fill="#F1F1F1" transform="translate(164,239)"/>
<path d="M0 0 C-2.59247252 8.98106552 -8.46515387 16.53723656 -16 22 C-14.67285535 17.59808459 -12.94710063 13.83980938 -10.625 9.875 C-10.03976562 8.86179688 -9.45453125 7.84859375 -8.8515625 6.8046875 C-4.35933148 0 -4.35933148 0 0 0 Z " fill="#EDEDED" transform="translate(277,207)"/>
<path d="M0 0 C0.598125 0.226875 1.19625 0.45375 1.8125 0.6875 C2.48331836 7.12735624 0.56680238 10.52533423 -3.1875 15.6875 C-5.78936108 13.08563892 -5.48560177 11.86395645 -5.5 8.25 C-5.51675781 7.28191406 -5.53351563 6.31382812 -5.55078125 5.31640625 C-5.1875 2.6875 -5.1875 2.6875 -3.8046875 0.8203125 C-2.1875 -0.3125 -2.1875 -0.3125 0 0 Z " fill="#F0F0F0" transform="translate(329.1875,235.3125)"/>
<path d="M0 0 C0.598125 0.226875 1.19625 0.45375 1.8125 0.6875 C2.48331836 7.12735624 0.56680238 10.52533423 -3.1875 15.6875 C-5.78936108 13.08563892 -5.48560177 11.86395645 -5.5 8.25 C-5.51675781 7.28191406 -5.53351563 6.31382812 -5.55078125 5.31640625 C-5.1875 2.6875 -5.1875 2.6875 -3.8046875 0.8203125 C-2.1875 -0.3125 -2.1875 -0.3125 0 0 Z " fill="#F0F0F0" transform="translate(297.1875,235.3125)"/>
<path d="M0 0 C4.30764815 1.56641751 8.06171464 3.68336156 12 6 C11.01 7.485 11.01 7.485 10 9 C6.5625 9.4375 6.5625 9.4375 3 9 C1.0625 7.3125 1.0625 7.3125 0 5 C-0.1875 2.25 -0.1875 2.25 0 0 Z " fill="#ECECEC" transform="translate(155,253)"/>
<path d="M0 0 C0.99 0 1.98 0 3 0 C3 1.65 3 3.3 3 5 C2.67 4.34 2.34 3.68 2 3 C0.35 3.66 -1.3 4.32 -3 5 C-1.125 1.125 -1.125 1.125 0 0 Z " fill="#252525" transform="translate(203,256)"/>
</svg>
